<svg t="1712910770261" class="icon" viewBox="0 0 1024 1024" version="1.1" xmlns="http://www.w3.org/2000/svg" p-id="5563" width="16" height="16">
<path d="M128 128m42.666667 0l256 0q42.666667 0 42.666666 42.666667l0 256q0 42.666667-42.666666 42.666666l-256 0q-42.666667 0-42.666667-42.666666l0-256q0-42.666667 42.666667-42.666667Z" fill="#1296db" p-id="5564"></path><path d="M725.333333 57.307552m30.16989 30.169889l181.019336 181.019336q30.169889 30.169889 0 60.339779l-181.019336 181.019336q-30.169889 30.169889-60.339779 0l-181.019336-181.019336q-30.169889-30.169889 0-60.339779l181.019336-181.019336q30.169889-30.169889 60.339779 0Z" fill="#1296db" p-id="5565"></path><path d="M128 554.666667m42.666667 0l256 0q42.666667 0 42.666666 42.666666l0 256q0 42.666667-42.666666 42.666667l-256 0q-42.666667 0-42.666667-42.666667l0-256q0-42.666667 42.666667-42.666666Z" fill="#1296db" p-id="5566"></path><path d="M554.666667 554.666667m42.666666 0l256 0q42.666667 0 42.666667 42.666666l0 256q0 42.666667-42.666667 42.666667l-256 0q-42.666667 0-42.666666-42.666667l0-256q0-42.666667 42.666666-42.666666Z" fill="#1296db" p-id="5567">
</path></svg>