<svg t="1712824464658" class="icon" viewBox="0 0 1024 1024" version="1.1" xmlns="http://www.w3.org/2000/svg" p-id="26127" width="200" height="200"><path d="M612.98295489 269.10227305h180.71249941L602.35681836 77.7624998v180.70909102c0 5.31704531 5.31363604 10.63068223 10.62613653 10.63068223z m0 0" p-id="26128" fill="#8a8a8a"></path><path d="M611.92272763 592.25568154H260.0670456c-12.7579544 0-23.38409092-10.62727295-23.38409091-23.38409091s10.62613653-23.38863662 23.38409091-23.38863574h366.73522735c11.69659073 0 20.19659063 8.5045456 22.32386367 19.13636337 34.0204544-20.19659063 73.34886357-31.88977295 115.86931788-31.88977295 10.63068223 0 21.2625 1.06136367 30.82840927 2.12613662V314.81477246h-182.84090888c-30.82386357 0-56.33863594-25.51590879-56.33863682-56.34318164V75.63636406H121.87499961C96.36363653 75.63636406 76.16704502 95.83295469 76.16704502 121.34431778V902.5454542c0 25.51477237 20.19659063 45.71250029 45.70795459 45.7125003h505.81022783C580.03295469 915.40909092 534.25000039 831.46931826 534.25000039 780.44772763c0-68.03522753 30.89999971-146.73295459 77.67272724-188.19204609zM260.0670456 408.35568184h366.73522735c12.7579544 0 23.38863662 10.63068223 23.38863574 23.38863662 0 12.75340869-10.63068223 23.38409092-23.38863574 23.38409092H260.0670456c-12.7579544 0-23.38409092-10.63068223-23.38409091-23.38409092 0-12.7579544 10.62613653-23.38863662 23.38409091-23.38863663z m0-1e-8" p-id="26129" fill="#8a8a8a"></path><path d="M763.9329544 580.56363653c-100.98522685 0-183.89999971 81.85340917-183.89999971 183.8999997C580.03295469 865.44886396 661.88295459 948.36363594 763.9329544 948.36363594c102.04659052-1.06136367 183.89999971-82.91477286 183.90000058-184.96136338 0-100.98522685-81.85340917-182.83863604-183.90000058-182.83863604z m0 297.64318183c-12.7579544 0-23.38863662-10.63068223-23.38863663-23.38863662 0-12.75340869 10.63068223-23.38409092 23.38863663-23.38409091 12.75340869 0 23.38409092 10.63068223 23.38409091 23.38409091 0.00113643 13.81818164-10.63068223 23.38863662-23.38409091 23.38863662z m0-69.09659122c-12.7579544 0-23.38863662-125.43522714-23.38863663-137.12727216s10.63068223-23.38863662 23.38863663-23.38863662c12.75340869 0 23.38409092 10.63068223 23.38409091 23.38863662 0.00113643 12.75340869-10.63068223 137.12727305-23.38409091 137.12727216z m0 0" p-id="26130" fill="#8a8a8a"></path></svg>