<svg t="1712885581242" class="icon" viewBox="0 0 1024 1024" version="1.1" xmlns="http://www.w3.org/2000/svg" p-id="48587" width="200" height="200">
<path d="M901.610555 469.25983s-146.683036 31.538783-187.285653 42.549662c-40.199779 11.010879-90.050863-68.73407-103.411624-71.604284-8.560287 24.992681-36.188194 98.376162-52.704513 148.160106 25.563367-0.788889 158.180677 39.780157 162.997936 63.379694 5.50544 23.901664 67.441634 282.758031 67.441635 282.75803s26.251547 55.641866-48.273305 75.968351c-74.608776 20.34327-77.948967-41.542569-77.948967-41.542569s-52.100257-198.56509-56.732883-210.566277c-4.313713-12.001187-101.447794-32.126254-123.670971-26.083698-22.40781 6.143265-70.378987 175.653733-117.762694 187.151374-60.861962 14.871401-239.100567-94.331006-239.100566-94.331006S54.779962 807.575802 69.131032 740.923057c14.653197-66.149199 82.967645-48.105456 82.967645-48.105456s126.222272 70.026505 140.774759 61.801915c14.753906-8.342084 23.112775-56.632174 44.647772-103.445194 0.872814-17.65769 50.421769-157.996043 50.421769-157.996043s27.426488-93.424623 16.516319-99.282545c-15.039249-8.023171-30.766679 9.130973-39.024838 23.414903-8.258159 14.183221-40.988669 72.594591-95.757721 148.663651-48.659357 67.743762-135.453954 4.867614-99.383254-58.41137 29.97779-52.670943 109.806662-203.214501 167.227725-231.580942 57.79033-28.56786 157.475712-44.446353 242.323263-24.405211 85.233603 19.638306 145.021334 117.024159 161.722286 129.914945 16.3149 12.420809 131.140241-25.076606 131.14024-25.076606s65.377094-22.911357 81.591285 37.279211c16.3149 60.593404-52.704512 75.582299-52.704512 75.582299zM633.01896 221.112214a111.401226 111.401226 0 0 1-137.535279-78.838565 112.89508 112.89508 0 0 1 79.224618-138.156319 111.770493 111.770493 0 0 1 137.535278 78.939275c16.230976 60.089858-19.269038 121.589646-79.224617 138.055609z" fill="#8a8a8a" p-id="48588">
</path></svg>