<svg id="图层_1" data-name="图层 1" xmlns="http://www.w3.org/2000/svg" viewBox="0 0 595.28 302"><defs><style>.cls-1{fill:#ff4906;}.cls-2{fill:#8dc21f;}.cls-3{fill:#2ca6e0;}.cls-4{fill:#fff;}</style></defs><rect class="cls-1" x="273.92" y="131.79" width="9.58" height="9.58"/><rect class="cls-2" x="289.06" y="131.79" width="9.58" height="9.58"/><rect class="cls-3" x="286.86" y="144.49" width="9.58" height="9.58"/><path class="cls-4" d="M153,222a20.59,20.59,0,0,1-10.31-2.76L98.73,193.84A20.7,20.7,0,0,1,88.42,176V125.26A20.67,20.67,0,0,1,98.73,107.4L142.65,82a20.7,20.7,0,0,1,20.63,0l43.91,25.36a20.66,20.66,0,0,1,10.32,17.86V176a20.69,20.69,0,0,1-10.32,17.87l-43.91,25.35A20.6,20.6,0,0,1,153,222Zm0-135.43a13.39,13.39,0,0,0-6.69,1.79l-43.92,25.35a13.44,13.44,0,0,0-6.7,11.6V176a13.44,13.44,0,0,0,6.7,11.6l43.92,25.35a13.4,13.4,0,0,0,13.39,0l43.91-25.35a13.44,13.44,0,0,0,6.7-11.6V125.26a13.44,13.44,0,0,0-6.7-11.6L159.66,88.31A13.43,13.43,0,0,0,153,86.52Z"/><path class="cls-1" d="M150.13,151.86l-14-7.83c-.51-.28-.81-.11-.8.45l.24,13.68c0,1.16-.62,1.5-1.66.9l-16.5-9.42a6.49,6.49,0,0,1-2.48-4l-.37-11.45a6.48,6.48,0,0,0-2.47-4.05l-11.54-6.7c-.51-.3-.82-.14-.83.4L99.59,175a6.46,6.46,0,0,0,2.47,4.11l13.39,7.77c.53.3.84.13.82-.46l-.64-20.06c0-.6.31-.77.85-.44l17.06,10.27a6.57,6.57,0,0,1,2.44,4.07l.3,16.81a6.54,6.54,0,0,0,2.47,4.08L152.22,209c.51.3.83.14.82-.42l-.41-52.6A6.44,6.44,0,0,0,150.13,151.86Z"/><path class="cls-2" d="M186,112.59l-16.61,1.3c-1.87.14-3.76-.44-3.57-1.11l3.28-11.19c0-.2-.08-.41-.39-.59l-16-9.57a5.5,5.5,0,0,0-4.19-.11l-1.39.85c-.43.27-.42.6,0,.89l2.39,1.56c.28.18.39.38.33.57l-6.62,20.17c-.11.36-.83.64-1.84.72l-27.81,2.17a6,6,0,0,1-3.18-.51l-.69-.41a6.17,6.17,0,0,0-4.73-.12l-1.11.68c-.46.28-.41.64.11.94l13.27,7.63a6.13,6.13,0,0,0,3.12.5l15.53-1.13c1.88-.13,3.75.46,3.53,1.12L136.09,137c-.06.21.08.43.41.62l16.33,9.48a6.17,6.17,0,0,0,4.71.11l1.58-1c.45-.27.42-.63-.08-.93l-1.86-1.1c-.32-.19-.45-.39-.39-.59l5.6-19.16c.1-.36.84-.65,1.88-.72l27.91-2a6,6,0,0,1,3.16.52h0a6.17,6.17,0,0,0,4.73.13l1.14-.7c.69-.42.64-1-.13-1.43l-11.91-7.16A6.11,6.11,0,0,0,186,112.59Z"/><path class="cls-3" d="M205.52,126.46A1.67,1.67,0,0,0,203,125l-46,26.84a1.6,1.6,0,0,0-.77,1.37V207a1.59,1.59,0,0,0,2.39,1.37l42.52-24.83a8.86,8.86,0,0,0,4.37-7.63v-10.4a6.6,6.6,0,0,0-5.11-6.43l-1.2-.28a1.6,1.6,0,0,1-.9-2.54l4.42-5.61a13.06,13.06,0,0,0,2.79-8.07Zm-10.86,38.09h0Zm-1.06-15.27-.06,2.78a1.58,1.58,0,0,1-.75,1.32l-18.47,11.44a1.6,1.6,0,0,1-2.43-1.36v-3.37a1.57,1.57,0,0,1,.79-1.37l18.52-10.84A1.59,1.59,0,0,1,193.6,149.28Zm-21.71,34.06v-4.26a1.59,1.59,0,0,1,.79-1.38l19.6-11.29a1.58,1.58,0,0,1,2.38,1.37v4.73a1.58,1.58,0,0,1-.82,1.39l-19.59,10.83A1.59,1.59,0,0,1,171.89,183.34Z"/><path class="cls-4" d="M262.93,132.06l-4.31,32.5a1.35,1.35,0,0,0,1.34,1.53H304a1.36,1.36,0,0,0,1.34-1.18l4.4-33.2a1.37,1.37,0,0,1,1.35-1.18h6.76a1.35,1.35,0,0,1,1.34,1.53l-5.71,43a1.36,1.36,0,0,1-1.34,1.18H249.11a1.35,1.35,0,0,1-1.34-1.53l5.71-43a1.36,1.36,0,0,1,1.34-1.18h6.77A1.35,1.35,0,0,1,262.93,132.06Zm-7.84-20.75h67.62a1.35,1.35,0,0,1,1.34,1.53l-.84,6.34a1.35,1.35,0,0,1-1.34,1.17H254.25a1.35,1.35,0,0,1-1.34-1.53l.84-6.33A1.35,1.35,0,0,1,255.09,111.31Zm14.29,13.15h35.56a1.35,1.35,0,0,1,1.34,1.53l-4.57,34.44a1.35,1.35,0,0,1-1.34,1.17H264.81a1.35,1.35,0,0,1-1.34-1.53L268,125.63A1.35,1.35,0,0,1,269.38,124.46Zm10.35,27,.42-3.22a1.35,1.35,0,0,0-1.34-1.54h-3.72a1.37,1.37,0,0,0-1.35,1.18l-.42,3.22a1.35,1.35,0,0,0,1.34,1.53h3.73A1.36,1.36,0,0,0,279.73,151.47Zm1.77-13.38.42-3.14a1.35,1.35,0,0,0-1.34-1.53h-3.73a1.35,1.35,0,0,0-1.34,1.17l-.42,3.15a1.35,1.35,0,0,0,1.34,1.53h3.73A1.35,1.35,0,0,0,281.5,138.09Zm12.74,13.38.42-3.22a1.35,1.35,0,0,0-1.34-1.54H289.6a1.37,1.37,0,0,0-1.35,1.18l-.42,3.22a1.35,1.35,0,0,0,1.34,1.53h3.73A1.36,1.36,0,0,0,294.24,151.47ZM296,138.09l.42-3.14a1.35,1.35,0,0,0-1.34-1.53h-3.73a1.35,1.35,0,0,0-1.34,1.17l-.42,3.15a1.35,1.35,0,0,0,1.34,1.53h3.73A1.35,1.35,0,0,0,296,138.09Z"/><path class="cls-4" d="M340.86,120h7.39a1.36,1.36,0,0,1,1.31,1.7A270.22,270.22,0,0,1,334,165.44a1.36,1.36,0,0,1-1.24.8h-8.26a1.35,1.35,0,0,1-1.21-2A229.38,229.38,0,0,0,339.56,121,1.36,1.36,0,0,1,340.86,120Zm3.34,48.09h0a11.31,11.31,0,0,0,11.21-9.82l6.38-48.11a1.35,1.35,0,0,1,1.34-1.17h7.3a1.35,1.35,0,0,1,1.34,1.53l-6.37,48a22.35,22.35,0,0,1-22.15,19.41h0a1.36,1.36,0,0,1-1.35-1.53l1-7.17A1.34,1.34,0,0,1,344.2,168.06Zm45.53-46.23a304.86,304.86,0,0,1,2.76,43.75,1.36,1.36,0,0,1-1.36,1.34h-7a1.35,1.35,0,0,1-1.35-1.36,258.5,258.5,0,0,0-3.2-43.34,1.35,1.35,0,0,1,1.34-1.56h7.48A1.36,1.36,0,0,1,389.73,121.83Z"/><path class="cls-4" d="M400.57,167.45h26.8a1.34,1.34,0,0,0,1.34-1.17l1.13-8.46a1.36,1.36,0,0,0-1.34-1.53H408.11a1.35,1.35,0,0,1-1.34-1.53l.89-6.72a1.35,1.35,0,0,1,1.34-1.17h21.11a1.37,1.37,0,0,0,1.34-1.18l.76-5.73a1.36,1.36,0,0,0-1.34-1.53H408.35A1.35,1.35,0,0,1,407,136.9l.89-6.71a1.36,1.36,0,0,1,1.34-1.18h58.51a1.36,1.36,0,0,1,1.34,1.53l-.89,6.72a1.36,1.36,0,0,1-1.35,1.17H443.62a1.36,1.36,0,0,0-1.34,1.18l-.76,5.73a1.35,1.35,0,0,0,1.34,1.53h20.39a1.35,1.35,0,0,1,1.34,1.53l-.89,6.71a1.36,1.36,0,0,1-1.34,1.18H441.25a1.36,1.36,0,0,0-1.34,1.17l-1.12,8.46a1.35,1.35,0,0,0,1.34,1.53h7.7a1.35,1.35,0,0,0,1.32-1.65l-1-4.44a1.35,1.35,0,0,1,1.32-1.65h7.26a1.34,1.34,0,0,1,1.31,1l1.3,5.64a1.35,1.35,0,0,0,1.32,1h5.58a1.37,1.37,0,0,1,1.35,1.54l-.92,6.86A1.35,1.35,0,0,1,465.3,177H399.66a1.35,1.35,0,0,1-1.34-1.53l.91-6.87A1.36,1.36,0,0,1,400.57,167.45Zm7-55.3h27.18a1.35,1.35,0,0,0,1.34-1.18l.26-1.9a1.36,1.36,0,0,1,1.34-1.18H445a1.36,1.36,0,0,1,1.34,1.53l-.16,1.2a1.35,1.35,0,0,0,1.34,1.53h26.46a1.36,1.36,0,0,1,1.35,1.53l-1.58,11.88a1.35,1.35,0,0,1-1.34,1.17h-7.15a1.35,1.35,0,0,1-1.34-1.53l.27-2a1.35,1.35,0,0,0-1.34-1.54H416.15a1.36,1.36,0,0,0-1.34,1.18l-.37,2.74a1.35,1.35,0,0,1-1.34,1.17H406a1.36,1.36,0,0,1-1.34-1.53l1.58-11.88A1.35,1.35,0,0,1,407.53,112.15Z"/><path class="cls-4" d="M248,191.44l1.83.19-.18.7h-4.06l.18-.7,1.85-.19Zm-.3-3.58c.34-1.32.68-2.66,1-4h2.24c-.37,1.3-.71,2.64-1.06,4l-.1.4c-.36,1.4-.7,2.74-1,4.07h-2.23c.37-1.3.71-2.64,1.05-4Zm-.13-3.3.18-.69h4.05l-.17.69-1.93.2h-.38Zm1.09,3.8.19-.75h4.9l-.19.75Zm4.32,3.08,1.79.19-.17.7h-4.06l.18-.7,1.9-.19Zm-.38-3.58c.34-1.32.68-2.66,1-4h2.24c-.37,1.3-.71,2.64-1.06,4l-.12.48c-.33,1.32-.68,2.66-1,4h-2.24c.37-1.3.71-2.64,1.07-4.07Zm-.08-3.3.17-.69h4.06l-.18.69-1.89.2h-.36Z"/><path class="cls-4" d="M275.73,191.4c1.15,0,2-.78,2.53-2.72l1.23-4.81h.83l-1.22,4.81c-.7,2.73-2.25,3.88-4.38,3.88-1.9,0-3.05-.93-2.41-3.43l.36-1.4c.32-1.27.65-2.57.94-3.86h2.24c-.36,1.26-.69,2.57-1,3.86l-.26,1C274.07,190.69,274.51,191.4,275.73,191.4Zm-3.21-6.84.17-.69h4.2l-.18.69-2,.2h-.37Zm7,.12-1.34-.12.18-.69h3.07l-.18.69-1.35.12Z"/><path class="cls-4" d="M293.91,191.63l1.37-.19h.23l1.17.19-.17.7h-2.78Zm5.64-7.78h1.33l.73,8.48h-2.19l-.44-6.91.65-.65-4.39,7.56h-.76Zm-2.73,5.27h3.48l.1.75h-4Zm1.52,2.54,1.5-.19h.86l1.6.19-.17.67h-4Z"/><path class="cls-4" d="M317.75,191.63l1.21-.11h.31l1.21.11-.17.7h-2.74Zm4.5-3.86.56.28L319,192.33h-1Zm-2.47-3.9h4l-.17.69-1.8.2h-.64l-1.59-.2Zm.42,0h2.37l2.78,8.46H323Zm1.55,7.76,1.84-.19h.59l1.8.19-.17.7h-4.23Zm4.34-7.76h1l-3.82,4.24-.52-.31Zm-1.25,0h2.69l-.17.69-1.2.1h-.33l-1.16-.1Z"/><path class="cls-4" d="M344,191.44l1.85.19-.17.7h-4.15l.17-.7,1.92-.19Zm-.35-3.58c.34-1.32.68-2.66,1-4h2.24c-.37,1.3-.71,2.64-1.06,4l-.11.47c-.34,1.33-.68,2.67-1,4h-2.24c.37-1.3.71-2.64,1.05-4Zm-.15-3.3.18-.69h4.15l-.18.69-1.95.2h-.38Z"/><path class="cls-4" d="M361.52,191.63l1.37-.19h.23l1.17.19-.17.7h-2.78Zm5.64-7.78h1.33l.73,8.48H367l-.43-6.91.64-.65-4.38,7.56h-.76Zm-2.73,5.27h3.48l.09.75h-4Zm1.52,2.54,1.5-.19h.86l1.6.19-.17.67h-4Z"/><path class="cls-4" d="M394.43,188.1a5.56,5.56,0,0,1-5.22,4.46c-2.12,0-3.71-1.46-2.95-4.46a5.57,5.57,0,0,1,5.22-4.47C393.59,183.63,395.19,185.1,394.43,188.1Zm-5,3.72c1.29,0,2.21-1.59,2.75-3.72s.44-3.73-.85-3.73-2.22,1.6-2.76,3.73S388.11,191.82,389.4,191.82Z"/><path class="cls-4" d="M411.5,191.44l-.23.89H409.2l.18-.7,1.91-.19Zm-.19-3.52c.34-1.35.69-2.7,1-4h2.2c-.37,1.32-.72,2.68-1.06,4l-.08.31c-.36,1.4-.7,2.75-1,4.1h-2.2c.38-1.32.72-2.67,1.07-4Zm-.13-3.36.17-.69h2.07l-.22.89H413Zm1.3,3h1.4a1.85,1.85,0,0,0,2-1.55c.25-1-.11-1.41-1.12-1.41h-1.52l.19-.74h2.09c2.18,0,2.78.86,2.49,2-.24,1-1,1.77-3.19,2l0-.12c2.24.14,2.93,1,2.62,2.19-.28,1.08-1.4,2.38-4.6,2.38h-1.59l.19-.75H413a2.15,2.15,0,0,0,2.3-1.65c.29-1.17-.18-1.68-1.46-1.68h-1.48Z"/><path class="cls-4" d="M432.14,191.63l1.37-.19h.23l1.17.19-.18.7H432Zm5.63-7.78h1.33l.74,8.48h-2.2l-.44-6.91.65-.65-4.38,7.56h-.76Zm-2.72,5.27h3.47l.1.75h-4Zm1.51,2.54,1.51-.19h.86l1.6.19-.17.67h-4Z"/><path class="cls-4" d="M465.05,188.1a5.56,5.56,0,0,1-5.22,4.46c-2.13,0-3.71-1.46-2.95-4.46a5.56,5.56,0,0,1,5.22-4.47C464.21,183.63,465.81,185.1,465.05,188.1Zm-5,3.72c1.29,0,2.2-1.59,2.75-3.72s.44-3.73-.86-3.73-2.21,1.6-2.75,3.73S458.72,191.82,460,191.82Z"/></svg>