<svg id="图层_1" data-name="图层 1" xmlns="http://www.w3.org/2000/svg" viewBox="0 0 595.28 302"><defs><style>.cls-1{fill:#ff4906;}.cls-2{fill:#8dc21f;}.cls-3{fill:#2ca6e0;}.cls-4{fill:#1a1a1a;}.cls-5{fill:#231815;}</style></defs><rect class="cls-1" x="286.74" y="126.66" width="9.58" height="9.58"/><rect class="cls-2" x="301.88" y="126.66" width="9.58" height="9.58"/><rect class="cls-3" x="299.68" y="139.36" width="9.58" height="9.58"/><path class="cls-4" d="M165.78,212.2a20.57,20.57,0,0,1-10.31-2.76l-43.92-25.35a20.7,20.7,0,0,1-10.31-17.87V115.51a20.7,20.7,0,0,1,10.31-17.87l43.92-25.35a20.7,20.7,0,0,1,20.63,0L220,97.64a20.69,20.69,0,0,1,10.32,17.87v50.71A20.69,20.69,0,0,1,220,184.09L176.1,209.44A20.6,20.6,0,0,1,165.78,212.2Zm0-135.43a13.29,13.29,0,0,0-6.69,1.79l-43.92,25.35a13.44,13.44,0,0,0-6.7,11.6v50.71a13.44,13.44,0,0,0,6.7,11.6l43.92,25.35a13.4,13.4,0,0,0,13.39,0l43.91-25.35a13.44,13.44,0,0,0,6.7-11.6V115.51a13.44,13.44,0,0,0-6.7-11.6L172.48,78.56A13.33,13.33,0,0,0,165.78,76.77Z"/><path class="cls-1" d="M214.42,109.43l-13.76-7.65a1.61,1.61,0,0,0-1.59,0l-11.93,7.12a3.26,3.26,0,0,1-3.28,0l-16.08-9.13a1.58,1.58,0,0,1-.05-2.73l9.72-6a1.59,1.59,0,0,0,0-2.73l-11.16-6.45a1.61,1.61,0,0,0-1.59,0l-46.21,26.4a1.59,1.59,0,0,0,0,2.76l12.95,7.48a1.59,1.59,0,0,0,1.63,0l17-10.52a1.56,1.56,0,0,1,1.65,0l16.15,9.71a1.59,1.59,0,0,1,0,2.73l-14.65,8.76a1.59,1.59,0,0,0,0,2.74l13,7.52a1.58,1.58,0,0,0,1.6,0l46.59-27.27A1.59,1.59,0,0,0,214.42,109.43Z"/><path class="cls-2" d="M205,123.23,197.91,139c-.8,1.78-2.19,3.16-2.63,2.61l-7.33-9.3c-.13-.17-.36-.16-.66,0l-15.48,9.14a5.92,5.92,0,0,0-2.13,3.74V147c0,.54.27.72.72.48l2.42-1.29c.28-.15.49-.14.61,0l12.87,17.41c.22.31.09,1.12-.33,2.08l-11.85,26.44a6.41,6.41,0,0,1-2,2.6l-.67.39a6.68,6.68,0,0,0-2.4,4.22v1.39c0,.57.3.74.8.44l12.57-7.72a6.33,6.33,0,0,0,1.93-2.54l6.69-14.73c.8-1.78,2.19-3.14,2.61-2.56l6.43,8.7c.13.18.37.17.69,0l15.55-9.44a6.7,6.7,0,0,0,2.38-4.21v-2c0-.56-.29-.73-.78-.45l-1.79,1.07c-.3.17-.53.18-.66,0L203,151.36c-.24-.3-.1-1.13.34-2.11l12-26.46a6.2,6.2,0,0,1,2-2.57h0a6.62,6.62,0,0,0,2.41-4.22v-1.42c0-.87-.45-1.13-1.2-.7L207,120.63A6.34,6.34,0,0,0,205,123.23Z"/><path class="cls-5" d="M275.75,126.93l-4.31,32.5a1.35,1.35,0,0,0,1.34,1.53h44.07a1.37,1.37,0,0,0,1.34-1.18l4.4-33.2a1.37,1.37,0,0,1,1.35-1.18h6.76a1.35,1.35,0,0,1,1.34,1.53l-5.71,43a1.36,1.36,0,0,1-1.34,1.18H261.93a1.35,1.35,0,0,1-1.34-1.53l5.71-43a1.36,1.36,0,0,1,1.34-1.18h6.77A1.35,1.35,0,0,1,275.75,126.93Zm-7.84-20.75h67.62a1.35,1.35,0,0,1,1.34,1.53l-.84,6.34a1.35,1.35,0,0,1-1.34,1.17H267.07a1.35,1.35,0,0,1-1.34-1.53l.84-6.33A1.35,1.35,0,0,1,267.91,106.18Zm14.29,13.15h35.56a1.35,1.35,0,0,1,1.34,1.53l-4.57,34.44a1.35,1.35,0,0,1-1.34,1.17H277.63a1.35,1.35,0,0,1-1.34-1.53l4.57-34.44A1.35,1.35,0,0,1,282.2,119.33Zm10.35,27,.42-3.22a1.35,1.35,0,0,0-1.34-1.54H287.9a1.37,1.37,0,0,0-1.34,1.18l-.42,3.22a1.35,1.35,0,0,0,1.34,1.53h3.73A1.36,1.36,0,0,0,292.55,146.34ZM294.32,133l.42-3.14a1.35,1.35,0,0,0-1.34-1.53h-3.73a1.35,1.35,0,0,0-1.34,1.17l-.42,3.15a1.35,1.35,0,0,0,1.34,1.53H293A1.35,1.35,0,0,0,294.32,133Zm12.74,13.38.42-3.22a1.35,1.35,0,0,0-1.34-1.54h-3.72a1.37,1.37,0,0,0-1.35,1.18l-.42,3.22a1.35,1.35,0,0,0,1.34,1.53h3.73A1.36,1.36,0,0,0,307.06,146.34ZM308.83,133l.42-3.14a1.35,1.35,0,0,0-1.34-1.53h-3.73a1.35,1.35,0,0,0-1.34,1.17l-.42,3.15a1.35,1.35,0,0,0,1.34,1.53h3.73A1.35,1.35,0,0,0,308.83,133Z"/><path class="cls-5" d="M353.68,114.84h7.39a1.36,1.36,0,0,1,1.31,1.7,270.22,270.22,0,0,1-15.59,43.77,1.36,1.36,0,0,1-1.24.8h-8.26a1.35,1.35,0,0,1-1.21-2,229.38,229.38,0,0,0,16.3-43.31A1.35,1.35,0,0,1,353.68,114.84ZM357,162.93h0a11.31,11.31,0,0,0,11.21-9.82L374.61,105a1.35,1.35,0,0,1,1.34-1.17h7.3a1.35,1.35,0,0,1,1.34,1.53l-6.37,48a22.36,22.36,0,0,1-22.16,19.41h0a1.36,1.36,0,0,1-1.34-1.53l1-7.17A1.34,1.34,0,0,1,357,162.93Zm45.53-46.23a304.86,304.86,0,0,1,2.76,43.75,1.36,1.36,0,0,1-1.36,1.34h-7a1.35,1.35,0,0,1-1.35-1.36,258.5,258.5,0,0,0-3.2-43.34,1.35,1.35,0,0,1,1.33-1.56h7.49A1.36,1.36,0,0,1,402.55,116.7Z"/><path class="cls-5" d="M413.39,162.32h26.8a1.35,1.35,0,0,0,1.34-1.17l1.13-8.46a1.36,1.36,0,0,0-1.34-1.53H420.93a1.35,1.35,0,0,1-1.34-1.53l.89-6.72a1.35,1.35,0,0,1,1.34-1.17h21.11a1.37,1.37,0,0,0,1.34-1.18l.76-5.73a1.36,1.36,0,0,0-1.35-1.53H421.17a1.35,1.35,0,0,1-1.34-1.53l.89-6.71a1.36,1.36,0,0,1,1.34-1.18h58.51a1.36,1.36,0,0,1,1.34,1.53l-.89,6.72a1.36,1.36,0,0,1-1.35,1.17H456.44a1.36,1.36,0,0,0-1.34,1.18l-.76,5.73a1.35,1.35,0,0,0,1.34,1.53h20.39a1.35,1.35,0,0,1,1.34,1.53l-.89,6.71a1.36,1.36,0,0,1-1.34,1.18H454.07a1.35,1.35,0,0,0-1.34,1.17l-1.12,8.46a1.35,1.35,0,0,0,1.34,1.53h7.7a1.34,1.34,0,0,0,1.31-1.65l-1-4.44a1.35,1.35,0,0,1,1.32-1.65h7.25a1.35,1.35,0,0,1,1.32,1l1.3,5.65a1.35,1.35,0,0,0,1.32,1H479a1.37,1.37,0,0,1,1.35,1.54l-.92,6.86a1.36,1.36,0,0,1-1.34,1.18H412.48a1.35,1.35,0,0,1-1.34-1.53l.91-6.87A1.36,1.36,0,0,1,413.39,162.32Zm7-55.3h27.18a1.35,1.35,0,0,0,1.34-1.18l.26-1.9a1.36,1.36,0,0,1,1.34-1.18h7.3a1.36,1.36,0,0,1,1.34,1.53l-.16,1.2a1.35,1.35,0,0,0,1.34,1.53h26.46a1.35,1.35,0,0,1,1.34,1.53l-1.57,11.88a1.35,1.35,0,0,1-1.34,1.17H478a1.35,1.35,0,0,1-1.34-1.53l.27-2a1.35,1.35,0,0,0-1.34-1.54H429a1.35,1.35,0,0,0-1.34,1.18l-.37,2.74a1.35,1.35,0,0,1-1.34,1.17h-7.15a1.35,1.35,0,0,1-1.34-1.53L419,108.19A1.35,1.35,0,0,1,420.35,107Z"/><path class="cls-5" d="M260.8,186.31l1.83.19-.18.69H258.4l.17-.69,1.85-.19Zm-.3-3.58c.34-1.33.68-2.66,1-4h2.24c-.37,1.3-.71,2.64-1.06,4l-.1.39c-.36,1.41-.7,2.75-1,4.07h-2.23c.37-1.3.71-2.63,1.05-4Zm-.13-3.3.18-.69h4.05l-.17.69-1.93.19h-.38Zm1.09,3.8.19-.75h4.9l-.19.75Zm4.32,3.08,1.79.19-.17.69h-4.06l.18-.69,1.9-.19Zm-.38-3.58c.34-1.33.68-2.66,1-4h2.24c-.37,1.3-.71,2.64-1.06,4l-.12.47c-.33,1.33-.67,2.67-1,4h-2.24c.37-1.3.71-2.63,1.07-4.07Zm-.08-3.3.18-.69h4.05l-.17.69-1.9.19h-.36Z"/><path class="cls-5" d="M288.55,186.26c1.15,0,2-.77,2.53-2.71l1.23-4.81h.84l-1.23,4.81c-.69,2.73-2.25,3.88-4.38,3.88-1.9,0-3-.94-2.41-3.43l.36-1.4c.32-1.27.65-2.57.94-3.86h2.24c-.36,1.26-.69,2.56-1,3.86l-.25,1C286.89,185.56,287.33,186.26,288.55,186.26Zm-3.21-6.83.18-.69h4.19l-.17.69-2,.19h-.37Zm7,.12-1.34-.12.18-.69h3.07l-.18.69-1.35.12Z"/><path class="cls-5" d="M306.73,186.5l1.38-.19h.22l1.18.19-.18.69h-2.77Zm5.64-7.78h1.33l.74,8.47h-2.2l-.44-6.9.65-.65-4.38,7.55h-.77ZM309.65,184h3.47l.1.75h-4Zm1.51,2.54,1.5-.19h.86l1.61.19-.17.66h-4Z"/><path class="cls-5" d="M330.57,186.5l1.21-.11h.31l1.22.11-.18.69h-2.74Zm4.5-3.86.56.28-3.78,4.27h-1Zm-2.47-3.9h4l-.18.69-1.8.19H334l-1.59-.19Zm.42,0h2.37l2.78,8.45H335.8Zm1.55,7.76,1.85-.19H337l1.81.19-.18.69H334.4Zm4.34-7.76h1L336.07,183l-.52-.31Zm-1.25,0h2.69l-.17.69-1.2.1h-.32l-1.17-.1Z"/><path class="cls-5" d="M356.78,186.31l1.85.19-.17.69h-4.15l.17-.69,1.92-.19Zm-.34-3.58c.33-1.33.67-2.66,1-4h2.24c-.37,1.3-.71,2.64-1,4l-.12.47c-.34,1.33-.68,2.67-1,4h-2.24c.37-1.3.71-2.63,1.05-4Zm-.15-3.3.17-.69h4.15l-.17.69-2,.19h-.38Z"/><path class="cls-5" d="M374.34,186.5l1.37-.19h.23l1.17.19-.17.69h-2.78Zm5.64-7.78h1.33l.73,8.47h-2.19l-.44-6.9.65-.65-4.39,7.55h-.76ZM377.25,184h3.48l.09.75h-4Zm1.52,2.54,1.5-.19h.86l1.6.19-.17.66h-4Z"/><path class="cls-5" d="M407.25,183a5.56,5.56,0,0,1-5.22,4.46c-2.12,0-3.71-1.47-2.95-4.46a5.57,5.57,0,0,1,5.23-4.47C406.42,178.5,408,180,407.25,183Zm-5,3.72c1.3,0,2.21-1.59,2.75-3.72s.44-3.73-.85-3.73-2.22,1.6-2.76,3.73S400.93,186.69,402.22,186.69Z"/><path class="cls-5" d="M424.32,186.31l-.23.88H422l.18-.69,1.91-.19Zm-.19-3.53c.35-1.34.69-2.7,1-4h2.2c-.37,1.32-.71,2.68-1.06,4l-.08.32c-.36,1.4-.7,2.75-1,4.09H423c.38-1.32.72-2.66,1.07-4Zm-.13-3.35.17-.69h2.07l-.22.88h-.21Zm1.3,3h1.41a1.84,1.84,0,0,0,2-1.55c.25-.95-.1-1.41-1.11-1.41h-1.52l.18-.74h2.09c2.18,0,2.78.86,2.49,2-.24,1-1,1.77-3.19,2l0-.11c2.24.14,2.94.94,2.62,2.19-.28,1.08-1.39,2.37-4.59,2.37h-1.6l.19-.74h1.49a2.15,2.15,0,0,0,2.3-1.65c.3-1.17-.18-1.68-1.46-1.68h-1.48Z"/><path class="cls-5" d="M445,186.5l1.37-.19h.23l1.17.19-.17.69h-2.78Zm5.64-7.78h1.32l.74,8.47h-2.2l-.43-6.9.64-.65-4.38,7.55h-.76ZM447.87,184h3.47l.1.75h-4Zm1.52,2.54,1.5-.19h.86l1.6.19-.17.66h-4Z"/><path class="cls-5" d="M477.87,183a5.56,5.56,0,0,1-5.22,4.46c-2.12,0-3.71-1.47-2.95-4.46a5.57,5.57,0,0,1,5.22-4.47C477,178.5,478.63,180,477.87,183Zm-5,3.72c1.29,0,2.21-1.59,2.75-3.72s.44-3.73-.85-3.73-2.22,1.6-2.76,3.73S471.55,186.69,472.84,186.69Z"/><path class="cls-3" d="M163.85,146.5a7.11,7.11,0,0,0-2.51-4.45l-46-28.23c-.48-.29-.77-.13-.77.43v53.81a6.81,6.81,0,0,0,2.39,4.25l42.52,26.07c2.71,1.66,4.37.75,4.37-2.38V185.59c0-3.07-2.12-8.27-5.11-12.55l-1.2-1.72c-1.14-1.62-1.62-3.55-.9-3.6l4.42-.33c1.81-.14,2.79-1.8,2.79-4.73ZM153,171.59h0Zm-1.07-16.54-.06,2.71c0,.53-.29.68-.75.42l-18.47-10.69a6.71,6.71,0,0,1-2.43-4.26v-3.37c0-.57.3-.73.79-.43l18.52,11.35A6.72,6.72,0,0,1,151.93,155.05Zm-21.71,8.06v-4.27c0-.56.3-.73.79-.42l19.6,12.17a6.79,6.79,0,0,1,2.39,4.24v4.72c0,.58-.32.74-.83.41l-19.59-12.63A6.83,6.83,0,0,1,130.22,163.11Z"/></svg>