<svg id="图层_1" data-name="图层 1" xmlns="http://www.w3.org/2000/svg" viewBox="0 0 595.28 302"><defs><style>.cls-1{fill:#fff;}.cls-2{fill:#8dc21f;}.cls-3{fill:#ff4906;}.cls-4{fill:#2ca6e0;}</style></defs><path class="cls-1" d="M170.33,218.12A20.69,20.69,0,0,1,160,215.37L116.1,190a20.68,20.68,0,0,1-10.31-17.86V121.43a20.68,20.68,0,0,1,10.31-17.86L160,78.21a20.7,20.7,0,0,1,20.63,0l43.92,25.36a20.68,20.68,0,0,1,10.31,17.86v50.72A20.68,20.68,0,0,1,224.57,190l-43.92,25.36A20.7,20.7,0,0,1,170.33,218.12Zm0-135.43a13.39,13.39,0,0,0-6.69,1.79l-43.92,25.36A13.42,13.42,0,0,0,113,121.43v50.72a13.42,13.42,0,0,0,6.69,11.59l43.92,25.36a13.45,13.45,0,0,0,13.39,0L221,183.74a13.42,13.42,0,0,0,6.69-11.59V121.43A13.42,13.42,0,0,0,221,109.84L177,84.48A13.43,13.43,0,0,0,170.33,82.69Z"/><path class="cls-2" d="M154.36,141.34l-7.07,7.41a1.59,1.59,0,0,1-2.63-.5l-7.33-18a1.6,1.6,0,0,0-.66-.77l-15.48-9.2a1.41,1.41,0,0,0-2.13,1.22v1.74a1.58,1.58,0,0,0,.72,1.33l2.42,1.58a1.55,1.55,0,0,1,.61.75l12.87,32.66a1.62,1.62,0,0,1-.33,1.68l-11.85,12.4a1.59,1.59,0,0,1-2,.27l-.67-.4a1.59,1.59,0,0,0-2.4,1.37v1.4a1.59,1.59,0,0,0,.8,1.38l12.57,7.19a1.61,1.61,0,0,0,1.93-.27l6.69-6.8a1.59,1.59,0,0,1,2.61.53l6.43,16.33a1.61,1.61,0,0,0,.69.79l15.55,9a1.59,1.59,0,0,0,2.38-1.38v-2a1.59,1.59,0,0,0-.78-1.37l-1.79-1.06a1.6,1.6,0,0,1-.66-.77l-12.55-30.78a1.61,1.61,0,0,1,.34-1.72l12-12.22a1.59,1.59,0,0,1,2-.24h0a1.59,1.59,0,0,0,2.41-1.36v-1.42a2.48,2.48,0,0,0-1.19-2.12l-11.54-6.92A1.61,1.61,0,0,0,154.36,141.34Z"/><rect class="cls-3" x="284.5" y="127.94" width="9.58" height="9.58"/><rect class="cls-2" x="299.64" y="127.94" width="9.58" height="9.58"/><rect class="cls-4" x="297.44" y="140.64" width="9.58" height="9.58"/><path class="cls-3" d="M175.21,148l13.29-7.82c.48-.29.77-.12.76.44L189,154.33c0,1.16.59,1.5,1.58.91l15.69-9.42a6.57,6.57,0,0,0,2.36-4l.35-11.44a6.66,6.66,0,0,1,2.35-4.06l11-6.7c.49-.29.78-.14.79.4l.15,51.22a6.51,6.51,0,0,1-2.35,4.11l-12.74,7.77c-.5.31-.8.13-.78-.46l.61-20.06c0-.59-.29-.77-.8-.44L191,172.39a6.56,6.56,0,0,0-2.32,4.06l-.28,16.81a6.56,6.56,0,0,1-2.36,4.08l-12.81,7.82c-.49.3-.78.13-.78-.42l.39-52.61A6.53,6.53,0,0,1,175.21,148Z"/><path class="cls-4" d="M215.46,117.44a1.84,1.84,0,0,0-.07-3L171.08,87.73a1.38,1.38,0,0,0-1.5,0l-44.41,24.91a1.74,1.74,0,0,0,.07,2.89l41.4,26.59a7.79,7.79,0,0,0,8.4.19l8.5-5.22a6.94,6.94,0,0,0,2.71-7.93l-.37-1.24a1.55,1.55,0,0,1,1.63-2.1l6.78,1.24a11.26,11.26,0,0,0,8-1.49ZM179,126.59h0Zm11.94-8.65-2.3,1.35a1.4,1.4,0,0,1-1.45,0L168.63,108a1.75,1.75,0,0,1-.1-2.91l2.76-1.7a1.4,1.4,0,0,1,1.51,0L190.86,115A1.74,1.74,0,0,1,190.9,117.94Zm-38.6-2.84,3.48-2.14a1.4,1.4,0,0,1,1.52,0l19,12.33a1.75,1.75,0,0,1,.06,2.89l-3.86,2.37a1.41,1.41,0,0,1-1.55-.06L152.33,118A1.75,1.75,0,0,1,152.3,115.1Z"/><path class="cls-1" d="M273.51,128.21l-4.31,32.5a1.35,1.35,0,0,0,1.34,1.53h44.07a1.36,1.36,0,0,0,1.34-1.18l4.41-33.2a1.35,1.35,0,0,1,1.34-1.18h6.76a1.35,1.35,0,0,1,1.34,1.53l-5.71,43a1.36,1.36,0,0,1-1.34,1.18H259.69a1.35,1.35,0,0,1-1.34-1.53l5.71-43a1.36,1.36,0,0,1,1.34-1.18h6.77A1.35,1.35,0,0,1,273.51,128.21Zm-7.84-20.75h67.62a1.35,1.35,0,0,1,1.34,1.53l-.84,6.34a1.35,1.35,0,0,1-1.34,1.17H264.83a1.35,1.35,0,0,1-1.34-1.53l.84-6.33A1.36,1.36,0,0,1,265.67,107.46ZM280,120.61h35.56a1.35,1.35,0,0,1,1.34,1.53l-4.57,34.44a1.35,1.35,0,0,1-1.34,1.17H275.39a1.35,1.35,0,0,1-1.34-1.53l4.57-34.44A1.35,1.35,0,0,1,280,120.61Zm10.35,27,.43-3.22a1.37,1.37,0,0,0-1.35-1.54h-3.72a1.37,1.37,0,0,0-1.35,1.18l-.42,3.22a1.35,1.35,0,0,0,1.34,1.53H289A1.35,1.35,0,0,0,290.31,147.62Zm1.77-13.38.42-3.14a1.35,1.35,0,0,0-1.34-1.53h-3.73a1.35,1.35,0,0,0-1.34,1.17l-.42,3.15a1.35,1.35,0,0,0,1.34,1.53h3.73A1.35,1.35,0,0,0,292.08,134.24Zm12.74,13.38.43-3.22a1.37,1.37,0,0,0-1.35-1.54h-3.72a1.35,1.35,0,0,0-1.34,1.18l-.43,3.22a1.35,1.35,0,0,0,1.34,1.53h3.73A1.35,1.35,0,0,0,304.82,147.62Zm1.77-13.38.42-3.14a1.35,1.35,0,0,0-1.34-1.53h-3.73a1.35,1.35,0,0,0-1.34,1.17l-.42,3.15a1.36,1.36,0,0,0,1.34,1.53h3.73A1.35,1.35,0,0,0,306.59,134.24Z"/><path class="cls-1" d="M351.44,116.12h7.39a1.35,1.35,0,0,1,1.31,1.7,270.22,270.22,0,0,1-15.59,43.77,1.36,1.36,0,0,1-1.24.8h-8.26a1.35,1.35,0,0,1-1.21-1.95,229.38,229.38,0,0,0,16.3-43.31A1.36,1.36,0,0,1,351.44,116.12Zm3.34,48.09h0A11.31,11.31,0,0,0,366,154.39l6.38-48.11a1.35,1.35,0,0,1,1.34-1.17H381a1.35,1.35,0,0,1,1.34,1.53l-6.37,48a22.35,22.35,0,0,1-22.15,19.41h0a1.36,1.36,0,0,1-1.35-1.53l1-7.17A1.35,1.35,0,0,1,354.78,164.21ZM400.31,118a304.86,304.86,0,0,1,2.76,43.75,1.36,1.36,0,0,1-1.36,1.34h-7a1.35,1.35,0,0,1-1.35-1.36,258.5,258.5,0,0,0-3.2-43.34,1.35,1.35,0,0,1,1.34-1.56H399A1.36,1.36,0,0,1,400.31,118Z"/><path class="cls-1" d="M411.15,163.6H438a1.34,1.34,0,0,0,1.34-1.17l1.13-8.46a1.35,1.35,0,0,0-1.34-1.53H418.69a1.35,1.35,0,0,1-1.34-1.53l.89-6.72a1.35,1.35,0,0,1,1.34-1.17h21.11a1.37,1.37,0,0,0,1.34-1.18l.76-5.73a1.36,1.36,0,0,0-1.34-1.53H418.93a1.35,1.35,0,0,1-1.34-1.53l.89-6.71a1.37,1.37,0,0,1,1.34-1.18h58.51a1.35,1.35,0,0,1,1.34,1.53l-.89,6.72a1.36,1.36,0,0,1-1.34,1.17H454.2a1.37,1.37,0,0,0-1.34,1.18l-.76,5.73a1.36,1.36,0,0,0,1.34,1.53h20.39a1.35,1.35,0,0,1,1.34,1.53l-.89,6.71a1.36,1.36,0,0,1-1.34,1.18H451.83a1.36,1.36,0,0,0-1.34,1.17l-1.12,8.46a1.35,1.35,0,0,0,1.34,1.53h7.7a1.35,1.35,0,0,0,1.32-1.65l-1-4.44a1.34,1.34,0,0,1,1.31-1.65h7.26a1.34,1.34,0,0,1,1.31,1l1.3,5.64a1.35,1.35,0,0,0,1.32,1h5.59a1.36,1.36,0,0,1,1.34,1.54l-.91,6.86a1.37,1.37,0,0,1-1.35,1.18H410.24a1.35,1.35,0,0,1-1.34-1.53l.91-6.87A1.36,1.36,0,0,1,411.15,163.6Zm7-55.3h27.18a1.35,1.35,0,0,0,1.34-1.18l.26-1.9a1.36,1.36,0,0,1,1.34-1.18h7.3a1.35,1.35,0,0,1,1.34,1.53l-.16,1.2a1.35,1.35,0,0,0,1.34,1.53h26.46a1.36,1.36,0,0,1,1.35,1.53l-1.58,11.88a1.35,1.35,0,0,1-1.34,1.17h-7.15a1.35,1.35,0,0,1-1.34-1.53l.27-2a1.35,1.35,0,0,0-1.34-1.54H426.73a1.36,1.36,0,0,0-1.34,1.18l-.37,2.74a1.35,1.35,0,0,1-1.34,1.17h-7.15a1.36,1.36,0,0,1-1.34-1.53l1.58-11.88A1.35,1.35,0,0,1,418.11,108.3Z"/><path class="cls-1" d="M258.56,187.59l1.83.19-.18.69h-4l.17-.69,1.85-.19Zm-.3-3.58c.34-1.32.68-2.66,1-4h2.24c-.37,1.3-.71,2.64-1.06,4l-.1.4c-.36,1.4-.7,2.74-1,4.06h-2.24c.37-1.3.71-2.63,1.05-4Zm-.13-3.3.18-.69h4.05l-.17.69-1.93.2h-.38Zm1.09,3.8.19-.75h4.9l-.19.75Zm4.32,3.08,1.79.19-.17.69H261.1l.18-.69,1.9-.19Zm-.38-3.58c.34-1.32.68-2.66,1-4h2.24c-.37,1.3-.71,2.64-1.05,4l-.13.48c-.33,1.32-.67,2.66-1,4H262c.37-1.3.71-2.63,1.07-4.06Zm-.08-3.3.17-.69h4.06l-.18.69-1.89.2h-.36Z"/><path class="cls-1" d="M286.31,187.54c1.15,0,2-.77,2.53-2.71l1.23-4.81h.83l-1.22,4.81c-.69,2.73-2.25,3.88-4.38,3.88-1.9,0-3.05-.94-2.41-3.43l.36-1.4c.32-1.27.65-2.57.94-3.86h2.24c-.36,1.26-.69,2.56-1,3.86l-.25,1C284.65,186.84,285.09,187.54,286.31,187.54Zm-3.21-6.83.17-.69h4.2l-.18.69-2,.2H285Zm7,.12-1.34-.12.18-.69H292l-.18.69-1.35.12Z"/><path class="cls-1" d="M304.49,187.78l1.38-.19h.22l1.18.19-.18.69h-2.77Zm5.64-7.78h1.33l.74,8.47H310l-.44-6.9.65-.65-4.38,7.55h-.77Zm-2.73,5.27h3.48l.1.75h-4Zm1.52,2.54,1.5-.19h.86l1.61.19-.17.66h-4Z"/><path class="cls-1" d="M328.33,187.78l1.21-.11h.31l1.22.11-.18.69h-2.74Zm4.5-3.86.56.28-3.78,4.27h-1Zm-2.47-3.9h4l-.17.69-1.8.2h-.64l-1.59-.2Zm.42,0h2.37l2.78,8.45h-2.37Zm1.55,7.76,1.84-.19h.59l1.81.19-.18.69h-4.23Zm4.34-7.76h1l-3.82,4.24-.52-.31Zm-1.25,0h2.69l-.17.69-1.2.1h-.32l-1.17-.1Z"/><path class="cls-1" d="M354.54,187.59l1.85.19-.17.69h-4.15l.17-.69,1.92-.19ZM354.2,184c.33-1.32.67-2.66,1-4h2.24c-.37,1.3-.71,2.64-1.05,4l-.12.47c-.34,1.33-.68,2.67-1,4H353c.37-1.3.71-2.63,1.05-4Zm-.16-3.3.18-.69h4.15l-.18.69-1.95.2h-.38Z"/><path class="cls-1" d="M372.1,187.78l1.37-.19h.23l1.17.19-.17.69h-2.78Zm5.64-7.78h1.33l.73,8.47h-2.19l-.44-6.9.65-.65-4.39,7.55h-.76ZM375,185.27h3.48l.09.75h-4Zm1.52,2.54,1.5-.19h.86l1.6.19-.16.66h-4Z"/><path class="cls-1" d="M405,184.25a5.56,5.56,0,0,1-5.22,4.46c-2.12,0-3.71-1.46-3-4.46a5.57,5.57,0,0,1,5.23-4.47C404.18,179.78,405.77,181.25,405,184.25ZM400,188c1.3,0,2.21-1.59,2.75-3.72s.44-3.73-.85-3.73-2.22,1.6-2.76,3.73S398.69,188,400,188Z"/><path class="cls-1" d="M422.08,187.59l-.23.88h-2.07l.18-.69,1.91-.19Zm-.19-3.52c.35-1.35.69-2.7,1-4h2.2c-.37,1.32-.71,2.68-1.06,4l-.08.31c-.36,1.4-.7,2.75-1,4.09h-2.2c.38-1.31.72-2.66,1.07-4Zm-.13-3.36.17-.69H424l-.22.89h-.2Zm1.3,3h1.41a1.84,1.84,0,0,0,2-1.55c.25-.95-.11-1.41-1.11-1.41h-1.53L424,180h2.09c2.18,0,2.78.86,2.49,2-.24,1-1,1.77-3.19,2l0-.11c2.24.14,2.94,1,2.62,2.19-.28,1.08-1.39,2.37-4.59,2.37h-1.6l.19-.74h1.49a2.15,2.15,0,0,0,2.3-1.65c.3-1.17-.18-1.68-1.46-1.68h-1.48Z"/><path class="cls-1" d="M442.72,187.78l1.37-.19h.23l1.17.19-.17.69h-2.78Zm5.64-7.78h1.32l.74,8.47h-2.2l-.43-6.9.64-.65-4.38,7.55h-.76Zm-2.73,5.27h3.47l.1.75h-4Zm1.52,2.54,1.5-.19h.86l1.6.19-.17.66h-4Z"/><path class="cls-1" d="M475.63,184.25a5.56,5.56,0,0,1-5.22,4.46c-2.12,0-3.71-1.46-3-4.46a5.57,5.57,0,0,1,5.22-4.47C474.79,179.78,476.39,181.25,475.63,184.25Zm-5,3.72c1.29,0,2.2-1.59,2.75-3.72s.44-3.73-.86-3.73-2.21,1.6-2.75,3.73S469.31,188,470.6,188Z"/></svg>